<svg xmlns="http://www.w3.org/2000/svg" viewBox="0 0 1160.92 301.64"><defs><style>.cls-1,.cls-2{fill:#fab93b;}.cls-2{font-size:197px;font-family:Athletic;}</style></defs><g id="Layer_2" data-name="Layer 2"><g id="Camada_1" data-name="Camada 1"><polygon class="cls-1" points="111.69 1 85.89 1.2 0 261.35 25.25 261.48 111.69 1"/><polygon class="cls-1" points="166.56 0.58 140.76 0.77 54.87 260.93 80.12 261.06 166.56 0.58"/><polygon class="cls-1" points="223.94 0.14 198.14 0.34 112.25 260.49 137.49 260.62 223.94 0.14"/><polygon class="cls-1" points="1052.5 1.57 1079.08 1.93 1160.92 263.19 1134.91 263.16 1052.5 1.57"/><polygon class="cls-1" points="995.97 0.8 1022.55 1.16 1104.4 262.42 1078.38 262.39 995.97 0.8"/><polygon class="cls-1" points="936.87 0 963.45 0.36 1045.3 261.62 1019.28 261.59 936.87 0"/><text class="cls-2" transform="translate(246.79 247.57)">carioca</text></g></g></svg>