<svg xmlns="http://www.w3.org/2000/svg" viewBox="0 0 1160.92 326.32"><defs><style>.cls-1,.cls-2,.cls-3{fill:#231f20;}.cls-2{font-size:197px;}.cls-2,.cls-3{font-family:Athletic;}.cls-3{font-size:85px;}</style></defs><g id="Layer_2" data-name="Layer 2"><g id="Camada_1" data-name="Camada 1"><polygon class="cls-1" points="111.69 25.68 85.89 25.88 0 286.04 25.25 286.17 111.69 25.68"/><polygon class="cls-1" points="166.56 25.26 140.76 25.46 54.87 285.62 80.12 285.75 166.56 25.26"/><polygon class="cls-1" points="223.94 24.82 198.14 25.02 112.25 285.18 137.49 285.31 223.94 24.82"/><polygon class="cls-1" points="1052.5 26.26 1079.08 26.62 1160.92 287.87 1134.91 287.84 1052.5 26.26"/><polygon class="cls-1" points="995.97 25.49 1022.55 25.85 1104.4 287.11 1078.38 287.08 995.97 25.49"/><polygon class="cls-1" points="936.87 24.69 963.45 25.05 1045.3 286.3 1019.28 286.27 936.87 24.69"/><text class="cls-2" transform="translate(246.79 272.26)">carioca</text><text class="cls-3" transform="translate(387.41 95.67) rotate(-10.27)">B</text><text class="cls-3" transform="translate(435.67 87.32) rotate(-5.25)">a</text><text class="cls-3" transform="translate(479.68 83.31) rotate(-2.68)">r</text><text class="cls-3" transform="matrix(1, -0.01, 0.01, 1, 526.01, 81.13)">b</text><text class="cls-3" transform="matrix(1, 0.02, -0.02, 1, 575.83, 80.57)">e</text><text class="cls-3" transform="translate(623.34 81.51) rotate(2.79)">a</text><text class="cls-3" transform="translate(667.65 83.62) rotate(4.72)">r</text><text class="cls-3" transform="translate(713.86 87.56) rotate(6.75)">i</text><text class="cls-3" transform="translate(740.73 90.41) rotate(9.73)">a</text></g></g></svg>