<svg xmlns="http://www.w3.org/2000/svg" viewBox="0 0 1160.92 318.91"><defs><style>.cls-1,.cls-2,.cls-3{fill:#fab93b;}.cls-2{font-size:250px;font-family:JadeMonkey, Jade Monkey;}.cls-3{font-size:85px;font-family:Athletic;}</style></defs><g id="Layer_2" data-name="Layer 2"><g id="Camada_1" data-name="Camada 1"><polygon class="cls-1" points="111.69 25.68 85.89 25.88 0 286.03 25.25 286.16 111.69 25.68"/><polygon class="cls-1" points="166.56 25.26 140.76 25.46 54.87 285.61 80.12 285.74 166.56 25.26"/><polygon class="cls-1" points="223.94 24.82 198.14 25.02 112.25 285.17 137.49 285.3 223.94 24.82"/><polygon class="cls-1" points="1052.5 26.25 1079.08 26.61 1160.92 287.87 1134.91 287.84 1052.5 26.25"/><polygon class="cls-1" points="995.97 25.49 1022.55 25.85 1104.4 287.1 1078.38 287.07 995.97 25.49"/><polygon class="cls-1" points="936.87 24.68 963.45 25.05 1045.3 286.3 1019.28 286.27 936.87 24.68"/><text class="cls-2" transform="translate(253.29 293.91)">CARIOCA</text><text class="cls-3" transform="translate(387.45 95.67) rotate(-10.27)">B</text><text class="cls-3" transform="translate(435.71 87.32) rotate(-5.26)">a</text><text class="cls-3" transform="translate(479.72 83.31) rotate(-2.68)">r</text><text class="cls-3" transform="translate(526.05 81.13) rotate(-0.66)">b</text><text class="cls-3" transform="translate(575.86 80.57) rotate(1.13)">e</text><text class="cls-3" transform="translate(623.38 81.5) rotate(2.79)">a</text><text class="cls-3" transform="translate(667.69 83.61) rotate(4.72)">r</text><text class="cls-3" transform="translate(713.9 87.56) rotate(6.75)">i</text><text class="cls-3" transform="matrix(0.99, 0.17, -0.17, 0.99, 740.77, 90.41)">a</text></g></g></svg>