<svg xmlns="http://www.w3.org/2000/svg" viewBox="0 0 120.07 213.72"><defs><style>.cls-1{fill:#f8b838;}</style></defs><g id="Layer_2" data-name="Layer 2"><g id="Layer_1-2" data-name="Layer 1"><polygon class="cls-1" points="2 2 5.43 6.08 56.73 166.72 53.43 162.91 2 2"/><polygon class="cls-1" points="9.92 7.69 13.34 11.77 64.65 172.41 61.35 168.6 9.92 7.69"/><polygon class="cls-1" points="17.83 14.39 21.26 18.47 72.57 179.11 69.27 175.3 17.83 14.39"/><polygon class="cls-1" points="25.75 19.39 29.18 23.47 80.48 184.12 77.18 180.31 25.75 19.39"/><polygon class="cls-1" points="33.67 25.3 37.1 29.38 88.4 190.02 85.1 186.21 33.67 25.3"/><polygon class="cls-1" points="41.59 31.52 45.01 35.59 96.32 196.24 93.02 192.43 41.59 31.52"/><polygon class="cls-1" points="49.5 37.47 52.93 41.55 104.24 202.19 100.93 198.39 49.5 37.47"/><polygon class="cls-1" points="57.42 43.56 60.85 47.64 112.15 208.28 108.85 204.47 57.42 43.56"/><polygon class="cls-1" points="65.34 49 68.77 53.08 120.07 213.72 116.77 209.91 65.34 49"/><polygon class="cls-1" points="1 1 4.43 5.08 55.73 165.72 52.43 161.91 1 1"/><polygon class="cls-1" points="8.92 6.69 12.34 10.77 63.65 171.41 60.35 167.6 8.92 6.69"/><polygon class="cls-1" points="16.83 13.39 20.26 17.47 71.57 178.11 68.27 174.3 16.83 13.39"/><polygon class="cls-1" points="24.75 18.39 28.18 22.47 79.48 183.12 76.18 179.31 24.75 18.39"/><polygon class="cls-1" points="32.67 24.3 36.1 28.38 87.4 189.02 84.1 185.21 32.67 24.3"/><polygon class="cls-1" points="40.59 30.52 44.01 34.59 95.32 195.24 92.02 191.43 40.59 30.52"/><polygon class="cls-1" points="48.5 36.47 51.93 40.55 103.24 201.19 99.93 197.39 48.5 36.47"/><polygon class="cls-1" points="56.42 42.56 59.85 46.64 111.15 207.28 107.85 203.47 56.42 42.56"/><polygon class="cls-1" points="64.34 48 67.77 52.08 119.07 212.72 115.77 208.91 64.34 48"/><polygon class="cls-1" points="0 0 3.43 4.08 54.73 164.72 51.43 160.91 0 0"/><polygon class="cls-1" points="7.92 5.69 11.34 9.77 62.65 170.41 59.35 166.6 7.92 5.69"/><polygon class="cls-1" points="15.83 12.39 19.26 16.47 70.57 177.11 67.27 173.3 15.83 12.39"/><polygon class="cls-1" points="23.75 17.39 27.18 21.47 78.48 182.12 75.18 178.31 23.75 17.39"/><polygon class="cls-1" points="31.67 23.3 35.1 27.38 86.4 188.02 83.1 184.21 31.67 23.3"/><polygon class="cls-1" points="39.59 29.52 43.01 33.59 94.32 194.24 91.02 190.43 39.59 29.52"/><polygon class="cls-1" points="47.5 35.47 50.93 39.55 102.24 200.19 98.93 196.39 47.5 35.47"/><polygon class="cls-1" points="55.42 41.56 58.85 45.64 110.15 206.28 106.85 202.47 55.42 41.56"/><polygon class="cls-1" points="63.34 47 66.77 51.08 118.07 211.72 114.77 207.91 63.34 47"/></g></g></svg>